#!OML:ASF \\sashay\E\Suitcase\Project 1\Capture day 1\Session 1\Male1.ASF
:FULLY-SPECIFIED
:DEGREES
209
root -0.512158 17.6044 8.22228 12.9897 -8.10837 3.1541
lowerback 29.0581 -3.08401 12.3094
upperback 10.314 0.108441 12.3223
thorax -3.86431 -0.0866501 6.45921
lowerneck -10.371 -14.1105 -7.11892
upperneck 18.3448 -19.5107 7.52224
head 8.88579 -8.91094 1.35081
rclavicle 0 2.70347e-014
rhumerus 9.03814 -9.25247 -60.2479
rradius 31.9643
rwrist -11.8888
rhand -26.0128 24.4142
rfingers 7.12502
rthumb 0.533398 -5.56491
lclavicle 0 2.70347e-014
lhumerus -31.4449 -11.7975 98.3035
lradius 57.7049
lwrist 5.70453
lhand -1.28688 43.0405
lfingers 7.12502
lthumb 24.3572 71.5126
rfemur -27.4552 -1.35804 14.4059
rtibia 24.7641
rfoot -7.87662 -7.8751
rtoes 9.1377
lfemur -19.1943 -0.361535 -17.9322
ltibia 14.5116
lfoot -7.23946 6.49339
ltoes 0.0523243
210
root -0.519378 17.6037 8.20041 13.1151 -8.3705 3.29694
lowerback 29.5847 -3.22856 12.4171
upperback 10.4668 0.0301113 12.3391
thorax -3.90272 -0.130196 6.4641
lowerneck -10.4765 -13.9475 -7.13652
upperneck 18.0701 -19.301 7.77425
head 8.82416 -8.79864 1.46199
rclavicle 6.36111e-015 7.95139e-014
rhumerus 10.4071 -9.80856 -60.6425
rradius 31.7419
rwrist -11.0848
rhand -26.5284 24.588
rfingers 7.12502
rthumb 0.0354454 -5.39177
lclavicle 6.36111e-015 7.95139e-014
lhumerus -31.3826 -11.3731 98.0817
lradius 57.9389
lwrist 5.78478
lhand -0.841948 43.3432
lfingers 7.12502
lthumb 24.7837 71.7573
rfemur -27.9072 -1.29029 14.2826
rtibia 25.0328
rfoot -7.91948 -7.79069
rtoes 8.97895
lfemur -19.4104 -0.151527 -18.0839
ltibia 14.5082
lfoot -6.99555 6.54298
ltoes 0.481526
211
root -0.524379 17.6002 8.17556 13.2038 -8.55706 3.4365
lowerback 30.0729 -3.29037 12.6131
upperback 10.6377 0.0750255 12.4232
thorax -3.90442 -0.11279 6.45807
lowerneck -10.741 -13.9811 -7.27896
upperneck 18.0443 -19.3072 7.78669
head 8.87884 -8.79955 1.46506
rclavicle -3.81667e-014 -1.81292e-013
rhumerus 11.8369 -10.2659 -60.7076
rradius 31.2423
rwrist -10.7987
rhand -27.3368 24.706
rfingers 7.12502
rthumb -0.745404 -5.27241
lclavicle -3.81667e-014 -1.81292e-013
lhumerus -31.234 -11.5933 98.0192
lradius 58.0025
lwrist 6.00893
lhand -1.43101 42.8454
lfingers 7.12502
lthumb 24.219 71.336
rfemur -28.2483 -1.40972 14.1994
rtibia 25.2676
rfoot -7.8039 -7.59028
rtoes 9.13241
lfemur -19.6371 -0.0593251 -18.212
ltibia 14.5955
lfoot -7.10312 6.51032
ltoes 0.853216
212
root -0.538144 17.5924 8.13785 13.3328 -8.85363 3.5602
lowerback 30.7938 -3.14635 12.6677
upperback 10.62 0.427524 12.6049
thorax -4.22812 0.0354762 6.54222
lowerneck -10.1536 -13.8719 -7.33596
upperneck 17.3711 -19.1247 7.89267
head 8.54847 -8.75454 1.59275
rclavicle 0 2.38542e-014
rhumerus 12.7671 -10.7821 -60.3396
rradius 30.6059
rwrist -10.5851
rhand -27.7194 25.6927
rfingers 7.12502
rthumb -1.11486 -4.28415
lclavicle 0 2.38542e-014
lhumerus -31.3167 -11.8234 98.2996
lradius 58.162
lwrist 5.88423
lhand -0.732438 43.1709
lfingers 7.12502
lthumb 24.8886 71.5706
rfemur -28.7521 -1.11981 14.0906
rtibia 25.4663
rfoot -7.77544 -7.5745
rtoes 6.92633
lfemur -20.02 0.140099 -18.2919
ltibia 14.8326
lfoot -7.52771 6.66553
ltoes -0.552557
213
root -0.545513 17.5911 8.12303 13.5339 -9.09475 3.60552
lowerback 31.0275 -3.07515 13.0818
upperback 10.8272 0.637579 12.6472
thorax -4.07248 0.142152 6.31743
lowerneck -10.8489 -13.9921 -6.78351
upperneck 17.5694 -19.2247 7.18271
head 8.61198 -8.80087 1.23142
rclavicle 8.26944e-014 -9.54166e-015
rhumerus 13.8683 -11.2835 -60.1927
rradius 30.3092
rwrist -10.5103
rhand -28.6271 25.546
rfingers 7.12502
rthumb -1.99155 -4.42442
lclavicle 8.26944e-014 -9.54166e-015
lhumerus -31.1329 -12.2966 98.3102
lradius 58.5252
lwrist 6.2717
lhand -1.18146 43.0258
lfingers 7.12502
lthumb 24.4583 71.4843
rfemur -29.1659 -1.09787 14.0615
rtibia 25.6101
rfoot -7.58253 -7.40572
rtoes 7.66131
lfemur -20.3093 0.254888 -18.3247
ltibia 14.9313
lfoot -7.47094 6.57825
ltoes 0.0227007
214
root -0.55352 17.5867 8.10382 13.693 -9.24978 3.65743
lowerback 31.407 -3.13158 13.1982
upperback 10.943 0.668423 12.8681
thorax -4.09518 0.146125 6.50198
lowerneck -10.6579 -13.8775 -7.30391
upperneck 17.186 -18.9961 7.41902
head 8.50971 -8.72483 1.42947
rclavicle 6.36111e-015 -4.92986e-014
rhumerus 15.293 -12.17 -60.4342
rradius 29.577
rwrist -9.47286
rhand -29.2262 26.9398
rfingers 7.12502
rthumb -2.57018 -3.02441
lclavicle 6.36111e-015 -4.92986e-014
lhumerus -30.964 -12.1764 98.481
lradius 58.448
lwrist 6.36622
lhand -1.19765 42.674
lfingers 7.12502
lthumb 24.4427 71.1346
rfemur -29.5397 -1.01539 14.0145
rtibia 25.8097
rfoot -7.77233 -7.29342
rtoes 8.97407
lfemur -20.6254 0.349284 -18.3569
ltibia 15.0966
lfoot -7.28846 6.82477
ltoes 0.626611
215
root -0.563984 17.593 8.0965 13.7909 -9.441 3.80303
lowerback 31.8093 -3.10436 13.3878
upperback 10.9422 0.84464 12.9593
thorax -4.24854 0.220714 6.46273
lowerneck -10.3772 -13.8076 -7.32685
upperneck 16.9357 -18.9204 7.60543
head 8.39249 -8.69102 1.52813
rclavicle -4.45278e-014 6.36111e-014
rhumerus 16.023 -12.6425 -60.3191
rradius 29.3521
rwrist -9.02707
rhand -29.8024 26.5444
rfingers 7.12502
rthumb -3.12664 -3.41245
lclavicle -4.45278e-014 6.36111e-014
lhumerus -31.1801 -12.2566 98.6299
lradius 58.7487
lwrist 6.10262
lhand -0.489354 43.2174
lfingers 7.12502
lthumb 25.1216 71.5847
rfemur -29.8798 -1.18793 13.9529
rtibia 26.0312
rfoot -7.6806 -7.01366
rtoes 8.20745
lfemur -20.7471 0.282588 -18.4761
ltibia 15.1033
lfoot -7.4384 6.93489
ltoes -1.48703
216
root -0.57496 17.5822 8.06969 13.9375 -9.62015 3.94812
lowerback 32.2121 -3.18952 13.4064
upperback 11.0871 0.801612 13.0223
thorax -4.24241 0.193452 6.54935
lowerneck -10.0952 -13.5337 -7.49044
upperneck 16.2517 -18.5531 8.05751
head 8.14872 -8.52481 1.77884
rclavicle 1.27222e-014 1.04958e-013
rhumerus 17.3681 -12.7175 -60.5592
rradius 28.6882
rwrist -8.89958
rhand -30.3349 27.2713
rfingers 7.12502
rthumb -3.6409 -2.67735
lclavicle 1.27222e-014 1.04958e-013
lhumerus -31.0907 -12.1692 98.5443
lradius 58.856
lwrist 6.35822
lhand -0.992255 42.9882
lfingers 7.12502
lthumb 24.6396 71.4221
rfemur -30.3604 -0.933783 13.7811
rtibia 26.3114
rfoot -7.82306 -7.10871
rtoes 8.44393
lfemur -21.0227 0.35166 -18.5717
ltibia 15.0817
lfoot -7.26793 7.01424
ltoes -1.52541
217
root -0.588858 17.5767 8.06013 14.14 -10.0777 4.55357
lowerback 32.3487 -2.94742 13.094
upperback 11.1301 1.02237 12.9939
thorax -4.27833 0.293434 6.60387
lowerneck -9.93069 -13.2527 -6.36873
upperneck 15.9596 -18.1892 7.32656
head 7.81185 -8.37055 1.47473
rclavicle 5.725e-014 4.45278e-014
rhumerus 18.0747 -13.9092 -60.7958
rradius 28.4504
rwrist -7.46544
rhand -30.589 28.0246
rfingers 7.12502
rthumb -3.88626 -1.91972
lclavicle 5.725e-014 4.45278e-014
lhumerus -31.1455 -12.6036 98.7096
lradius 58.9409
lwrist 6.4491
lhand -1.83563 42.8019
lfingers 7.12502
lthumb 23.831 71.3437
rfemur -30.9798 -0.662291 13.0947
rtibia 26.6393
rfoot -7.6493 -7.17118
rtoes 8.36346
lfemur -21.3478 0.405772 -19.2033
ltibia 15.0409
lfoot -7.14411 7.15963
ltoes -0.900347
218
root -0.597208 17.5742 8.04723 14.3684 -10.3435 4.75211
lowerback 32.4419 -2.96383 13.2318
upperback 11.3325 1.00927 12.9074
thorax -4.07307 0.296068 6.44646
lowerneck -9.75104 -13.0274 -6.30374
upperneck 15.1952 -17.9214 7.8423
head 7.55567 -8.23276 1.6908
rclavicle -5.08889e-014 -1.27222e-014
rhumerus 19.4508 -15.0702 -61.6433
rradius 27.8476
rwrist -5.82293
rhand -30.7177 27.7615
rfingers 7.12502
rthumb -4.01056 -2.18051
lclavicle -5.08889e-014 -1.27222e-014
lhumerus -30.9362 -12.7453 98.5289
lradius 58.9968
lwrist 6.33372
lhand -1.2796 42.8575
lfingers 7.12502
lthumb 24.3642 71.3287
rfemur -31.6135 -0.687044 12.8923
rtibia 26.9749
rfoot -7.96969 -6.87234
rtoes 9.03883
lfemur -21.6746 0.408443 -19.383
ltibia 15.0843
lfoot -7.07508 7.32401
ltoes -1.08958
